# xmcd
#
# Track frame offsets: 
#        150
#        12521
#        29961
#        42608
#        60525
#        77235
#        89036
#        112525
#        123455
#        139434
#        153556
#        169718
#        197993
#        214043
#
# Disc length: 3144 seconds
#
# Revision: 0
# Processed by: cddbd v1.5.2PL0 Copyright (c) Steve Scherf et al.
# Submitted via: ExactAudioCopy v1.3
#
DISCID=d00c460e
DTITLE=Brad Wilson - No More Doggin'
DYEAR=2019
DGENRE=Blues
TTITLE0=She's Murder
TTITLE1=I Got My Eyes On You
TTITLE2=Eyesight To The Blind
TTITLE3=Tip On In
TTITLE4=Got Eyes
TTITLE5=I Believe I'm In Love With You
TTITLE6=Sinner's Prayer
TTITLE7=Too Close Together
TTITLE8=Just A Little Bit
TTITLE9=No More Doggin'
TTITLE10=Little By Little
TTITLE11=Dirty Work
TTITLE12=Got Love If You Want It
TTITLE13=Don't Bite The Hand That Feeds You
EXTD=
EXTT0=
EXTT1=
EXTT2=
EXTT3=
EXTT4=
EXTT5=
EXTT6=
EXTT7=
EXTT8=
EXTT9=
EXTT10=
EXTT11=
EXTT12=
EXTT13=
PLAYORDER=
